# xmcd CD database file
#
# Track frame offsets:
#	150
#	20602
#	42207
#	60340
#	85217
#	99225
#	132920
#	157650
#	178430
#	206697
#	226887
#	241572
#	265275
#
# Disc length: 3762 seconds
#
# Revision: 0
# Processed by: cddbd v1.5.2PL0 Copyright (c) Steve Scherf et al.
# Submitted via: CDex 1.70beta2
#
DISCID=9d0eb00d
DTITLE=Faldo's Toy - Icon
DYEAR=1997
DGENRE=Jazz
TTITLE0=Worm Hole
TTITLE1=Jack Frost
TTITLE2=Faldo's Toy
TTITLE3=PI
TTITLE4=Ode to Edith Keeler
TTITLE5=Zeno's Paradox
TTITLE6=Astro
TTITLE7=Fish Talk
TTITLE8=JP Strut
TTITLE9=Mank de' Spunky
TTITLE10=Hit the Hooka
TTITLE11=Kijana
TTITLE12=Candela
EXTD=YEAR: 1997
EXTT0=
EXTT1=
EXTT2=
EXTT3=
EXTT4=
EXTT5=
EXTT6=
EXTT7=
EXTT8=
EXTT9=
EXTT10=
EXTT11=
EXTT12=
PLAYORDER=
